<?xml version="1.0" encoding="utf-8"?>
<!-- Generator: Adobe Illustrator 21.0.0, SVG Export Plug-In . SVG Version: 6.00 Build 0)  -->
<svg version="1.1" id="Layer_1" xmlns="http://www.w3.org/2000/svg" xmlns:xlink="http://www.w3.org/1999/xlink" x="0px" y="0px"
	 viewBox="0 0 1000 1000" style="enable-background:new 0 0 1000 1000;" xml:space="preserve">
<style type="text/css">
	.st0{fill:#533010;stroke:#000000;stroke-width:2;stroke-miterlimit:10;}
	.st1{fill:#FFD2C0;stroke:#000000;stroke-width:2;stroke-miterlimit:10;}
	.st2{fill:#FFD2C0;stroke:#000000;stroke-width:3;stroke-miterlimit:10;}
	.st3{fill:#231F20;stroke:#000000;stroke-width:2;stroke-miterlimit:10;}
	.st4{fill:#FFD2C0;}
	.st5{fill:#FAD3E4;}
</style>
<path class="st0" d="M462.4,14.2c-92.8-6.6-187.7,15.1-252.7,62.3c-75.3,54.7-98.6,133.7-118.2,205.6c-11.2,41-19.4,82.3-29.4,123.5
	c-10,41.4-20.6,82.7-29.9,124.1c-17.7,79-23.6,162.2-8.9,241.8c8.3,44.9,24.5,92.2,61.1,130.3c0,0,2.9,3,5.5,5.5
	c79.4,76.2,516.3,119.1,757.6,29.3c40.2-14.9,129.3-48.1,137-101.6c0.9-6.1,0.4-10.5,0.1-13.6c-6.5-67.5,0.9-103.5-2.6-167.4
	c-5.5-99.4-33.1-189.8-41.8-217.7c-26.5-84.9-57.2-143.9-83.3-194.1c-19.8-37.9-39.3-71.2-72.4-109C765,111,744.4,87.5,716.9,68.7
	C638.3,15,521.4,12.2,462.4,14.2"/>
<path class="st1" d="M490.8,83.3c-209.8,0-331.3,177.9-337.1,305.7c-0.5,10.4-1.6,51.8,19.1,101.8c43.9,105.6,167,204,317.9,204
	c186.2,0,337.1-136.9,337.1-305.7C827.9,220.2,677,83.3,490.8,83.3z"/>
<path class="st2" d="M499.3,803c-32.6-8.2-67.8-19.4-104.9-34.7c-102.3-42.5-180.6-101.5-236-152.3l-5-248.5l-1-6.8v-5.4"/>
<path class="st2" d="M827.9,367.4L823.2,616c-52.6,50.8-127,109.8-224.2,152.3c-35.2,15.4-68.7,26.6-99.6,34.7"/>
<ellipse class="st3" cx="347.2" cy="439.1" rx="47.5" ry="52.8"/>
<ellipse class="st3" cx="641.7" cy="439.1" rx="47.5" ry="52.8"/>
<ellipse class="st4" cx="394.7" cy="440.5" rx="17" ry="18.9"/>
<ellipse class="st4" cx="691.6" cy="440.5" rx="17" ry="18.9"/>
<line class="st1" x1="498.6" y1="803" x2="500.2" y2="802.8"/>
<polygon class="st4" points="611.3,678.5 499.3,803 382.7,673.3 494.7,548.8 "/>
<rect x="462.8" y="684" class="st4" width="21.9" height="10.8"/>
<path class="st1" d="M450.6,675.9c5.1,4,18.1,12.8,36.5,13.5c21.3,0.8,36.4-9.7,41.4-13.5"/>
<path class="st0" d="M158.6,367.4c12.1,11.7,50.4-7.4,126.6-46c153.4-77.7,247.2-157.3,270.1-178.6c7.3-6.7,19.1-18.4,38.9-35.2
	c33.9-28.6,41.5-30,41.4-35.2C634.9,47,441.9-34.2,297.3,64.4C175.1,147.7,124.3,334.4,158.6,367.4z"/>
<ellipse class="st5" cx="290" cy="558.2" rx="51.1" ry="58.2"/>
<ellipse class="st5" cx="715.9" cy="569" rx="51.1" ry="58.2"/>
<path class="st2" d="M494.9,798.1"/>
<line class="st0" x1="489.6" y1="800.5" x2="504.2" y2="800.3"/>
</svg>
